# xmcd CD database file
#
# Track frame offsets:
#	150
#	11954
#	24976
#	37621
#	51199
#	64463
#	80464
#	94590
#	108822
#	119943
#	133474
#	149070
#	165615
#	179152
#	195456
#	210572
#	225703
#	246564
#	266010
#	278516
#	292210
#	305196
#
# Disc length: 4243 seconds
#
# Revision: 0
# Processed by: cddbd v1.5.2PL0 Copyright (c) Steve Scherf et al.
# Submitted via: CDex 1.70beta2
#
DISCID=5b109116
DTITLE=Jazz Sélection - Jazz à la française
DYEAR=2007
DGENRE=Jazz
TTITLE0=Django - Pêche à la mouche
TTITLE1=Django - Folie à Amphion
TTITLE2=Django - Swing 48
TTITLE3=Django - Flèche d'or
TTITLE4=Django - Double whisky
TTITLE5=Django - Troublant boléro
TTITLE6=Django - Nuits de st Germain des Prés
TTITLE7=Django - Insensiblement
TTITLE8=Django - Brazil
TTITLE9=Django - Chez moi
TTITLE10=Django - Don't blame me
TTITLE11=Django - Stompin' at the Savoy
TTITLE12=Django - No1 for Sacha
TTITLE13=Django - Francine
TTITLE14=Django - Djangology
TTITLE15=Django - Minor swing
TTITLE16=Django - Les amoureux des bancs publics
TTITLE17=Django - Envie de toi
TTITLE18=Django - Twelve years
TTITLE19=Django - Valse à Tchavolo
TTITLE20=Django - Strange eyes
TTITLE21=Django - Double jeu
EXTD=YEAR: 2007
EXTT0=
EXTT1=
EXTT2=
EXTT3=
EXTT4=
EXTT5=
EXTT6=
EXTT7=
EXTT8=
EXTT9=
EXTT10=
EXTT11=
EXTT12=
EXTT13=
EXTT14=
EXTT15=
EXTT16=
EXTT17=
EXTT18=
EXTT19=
EXTT20=
EXTT21=
PLAYORDER=
